<svg width="132" height="27" fill="none" xmlns="http://www.w3.org/2000/svg"><g clip-path="url(#a)" fill="#fff"><path d="M131.766 20.418v3.267h-2.74c-2.924-.092-4.487-1.671-4.487-4.637v-7.46h-1.913V8.722h1.913V5.514h4.044v3.175h3.091v2.857h-3.091v7.101c0 .96.192 1.73 1.671 1.73l1.512.041Zm-25.255-4.185v-.218a7.305 7.305 0 0 1 4.216-6.959 7.308 7.308 0 0 1 2.776-.676h.585c3.818 0 7.168 2.222 7.168 7.518v1.128h-10.61c.109 2.44 1.429 3.818 3.651 3.818 1.913 0 2.807-.835 3.066-2.055h3.818c-.468 3.183-3.007 4.954-7.026 4.954-4.411-.033-7.644-2.823-7.644-7.51Zm10.769-1.763c-.142-2.222-1.262-3.292-3.209-3.292-1.946 0-3.066 1.203-3.341 3.292h6.55Zm-27.278 1.763v-.218a7.31 7.31 0 0 1 6.976-7.635h.585c3.818 0 7.176 2.222 7.176 7.518v1.128H94.138c.108 2.44 1.428 3.818 3.65 3.818 1.914 0 2.808-.835 3.067-2.055h3.818c-.477 3.183-3.016 4.954-7.035 4.954-4.403-.033-7.636-2.823-7.636-7.51Zm10.769-1.763c-.142-2.222-1.261-3.292-3.208-3.292-1.947 0-3.033 1.237-3.342 3.283l6.55.009ZM66.835 8.689h4.278l2.615 9.908 2.865-9.908h3.342l2.59 9.908 2.757-9.908H89.2l-4.645 14.72h-4.01l-2.506-9.24-2.682 9.24h-4.06L66.835 8.69ZM53.243 18.78h3.818c.175 1.33.835 2.09 2.59 2.09 1.57 0 2.297-.594 2.297-1.605 0-1.01-.835-1.437-2.974-1.737-3.918-.594-5.43-1.721-5.43-4.595 0-3.066 2.806-4.587 5.848-4.587 3.266 0 5.73 1.186 6.082 4.57h-3.768a1.989 1.989 0 0 0-2.18-1.796H59.4c-1.32 0-2.089.618-2.089 1.52s.71 1.295 2.866 1.604c3.66.552 5.706 1.479 5.706 4.629 0 3.15-2.314 4.837-6.19 4.837-3.877 0-6.342-1.746-6.45-4.93ZM37.019 8.689h4.043v2.33a5.063 5.063 0 0 1 4.77-2.673c2.866 0 4.946 1.746 4.946 5.731v9.365h-3.993v-8.78c0-1.997-.777-2.95-2.582-2.95a2.907 2.907 0 0 0-3.15 2.658c-.02.177-.02.357 0 .534v8.505H37.02V8.69Zm-7.804-3.701a2.038 2.038 0 1 1 2.106 1.963h-.075a1.905 1.905 0 0 1-2.022-1.788 1.24 1.24 0 0 1-.009-.175Zm0 3.7h4.086V23.41h-4.069l-.017-14.72ZM13.818 3.292h12.916v3.567H18.38v5.322h6.616v3.433h-6.625v7.795h-4.553V3.292ZM6.024 9.875c0 1.261 0 2.799-1.738 3.425 1.78.61 1.738 1.905 1.738 3.258v5.013c0 .952.384 1.529 1.069 1.671.15.05.309.073.468.067h1.67v3.342H6.476c-2.941 0-4.562-1.671-4.562-4.77v-5.932a1.22 1.22 0 0 0-1.195-1.137H0V11.88h.718a1.211 1.211 0 0 0 1.195-1.17V4.695C1.913 1.645 3.501 0 6.475 0h2.782v3.292H7.586a1.52 1.52 0 0 0-.468.075c-.685.175-1.07.743-1.07 1.67l-.024 4.838Z"/></g><defs><clipPath id="a"><path fill="#fff" d="M0 0h132v26.734H0z"/></clipPath></defs></svg>