<svg width="132" height="27" viewBox="0 0 132 27" fill="none" xmlns="http://www.w3.org/2000/svg">
<g clip-path="url(#clip0_901_676)">
<path d="M131.766 20.4182V23.6848H129.026C126.102 23.5929 124.539 22.0139 124.539 19.0481V11.5876H122.626V8.72202H124.539V5.51392H128.583V8.6886H131.674V11.5458H128.583V18.6471C128.583 19.6078 128.775 20.3764 130.254 20.3764L131.766 20.4182Z" fill="white"/>
<path d="M106.511 16.2327V16.0155C106.467 15.0546 106.613 14.0945 106.941 13.1903C107.269 12.2861 107.773 11.4555 108.422 10.7461C109.072 10.0367 109.855 9.46254 110.727 9.05644C111.599 8.65033 112.542 8.42029 113.503 8.37952C113.696 8.37952 113.896 8.37952 114.088 8.37952C117.906 8.37952 121.256 10.6018 121.256 15.8985V17.0264H110.646C110.755 19.4658 112.075 20.8443 114.297 20.8443C116.21 20.8443 117.104 20.0089 117.363 18.7891H121.181C120.713 21.9722 118.174 23.7433 114.155 23.7433C109.744 23.7099 106.511 20.9195 106.511 16.2327ZM117.28 14.4699C117.138 12.2476 116.018 11.1783 114.071 11.1783C112.125 11.1783 111.005 12.3813 110.73 14.4699H117.28Z" fill="white"/>
<path d="M90.0022 16.2327V16.0155C89.9585 15.0559 90.1042 14.0972 90.4312 13.194C90.7581 12.2908 91.2599 11.461 91.9077 10.7518C92.5556 10.0427 93.3369 9.46814 94.2069 9.06108C95.0769 8.65403 96.0186 8.42243 96.9782 8.37952C97.1703 8.37952 97.3708 8.37952 97.563 8.37952C101.381 8.37952 104.739 10.6018 104.739 15.8985V17.0264H94.1377C94.2463 19.4658 95.5663 20.8443 97.7886 20.8443C99.7017 20.8443 100.596 20.0089 100.855 18.7891H104.673C104.196 21.9722 101.657 23.7433 97.6382 23.7433C93.2354 23.7099 90.0022 20.9195 90.0022 16.2327ZM100.771 14.4699C100.629 12.2476 99.5096 11.1783 97.563 11.1783C95.6164 11.1783 94.5303 12.4147 94.2212 14.4615L100.771 14.4699Z" fill="white"/>
<path d="M66.8354 8.6886H71.1129L73.7279 18.597L76.5934 8.6886H79.9352L82.5251 18.597L85.282 8.6886H89.2003L84.5552 23.4091H80.5451L78.0387 14.1691L75.357 23.4091H71.2967L66.8354 8.6886Z" fill="white"/>
<path d="M53.2427 18.7808H57.0607C57.2361 20.1091 57.8961 20.8694 59.6505 20.8694C61.2212 20.8694 61.948 20.2762 61.948 19.2653C61.948 18.2544 61.1126 17.8283 58.9738 17.5276C55.0556 16.9344 53.5434 15.8066 53.5434 12.9327C53.5434 9.86658 56.3505 8.34607 59.3915 8.34607C62.6581 8.34607 65.1227 9.5324 65.4736 12.9159H61.7057C61.6817 12.6544 61.606 12.4002 61.4832 12.168C61.3603 11.9358 61.1927 11.7303 60.9899 11.5633C60.7872 11.3962 60.5534 11.2711 60.3019 11.1949C60.0505 11.1188 59.7865 11.0933 59.5252 11.1197H59.3999C58.0799 11.1197 57.3113 11.738 57.3113 12.6402C57.3113 13.5425 58.0214 13.9352 60.1769 14.2443C63.8361 14.7957 65.8829 15.723 65.8829 18.8727C65.8829 22.0223 63.5688 23.7099 59.6923 23.7099C55.8158 23.7099 53.3513 21.9638 53.2427 18.7808Z" fill="white"/>
<path d="M37.0186 8.68859H41.0621V11.0195C41.5179 10.1639 42.2097 9.45721 43.0553 8.9833C43.9009 8.5094 44.8648 8.28822 45.8325 8.34606C48.698 8.34606 50.7783 10.0921 50.7783 14.0772V23.4425H46.7849V14.662C46.7849 12.6653 46.0079 11.7129 44.2034 11.7129C43.822 11.6797 43.4377 11.7221 43.0728 11.8378C42.7078 11.9535 42.3693 12.1401 42.0767 12.387C41.784 12.6338 41.543 12.936 41.3675 13.2763C41.1919 13.6165 41.0853 13.9881 41.0537 14.3696C41.0329 14.5472 41.0329 14.7267 41.0537 14.9043V23.4091H37.0186V8.68859Z" fill="white"/>
<path d="M29.2155 4.98765C29.2008 4.5845 29.3061 4.18606 29.518 3.84278C29.7299 3.4995 30.039 3.22682 30.4059 3.05926C30.7729 2.89171 31.1814 2.83681 31.5796 2.90152C31.9778 2.96623 32.3478 3.14763 32.6429 3.42277C32.9379 3.69791 33.1447 4.05441 33.237 4.44712C33.3293 4.83984 33.303 5.25112 33.1615 5.6289C33.0199 6.00667 32.7694 6.33394 32.4418 6.56928C32.1141 6.80463 31.724 6.93745 31.3208 6.95094H31.2456C30.9953 6.96678 30.7444 6.93306 30.5072 6.8517C30.2701 6.77035 30.0513 6.64297 29.8634 6.47686C29.6756 6.31076 29.5224 6.1092 29.4126 5.88375C29.3029 5.6583 29.2387 5.4134 29.2238 5.1631C29.2169 5.10489 29.2141 5.04626 29.2155 4.98765ZM29.2155 8.68867H33.3008V23.4092H29.2322L29.2155 8.68867Z" fill="white"/>
<path d="M13.8181 3.29163H26.7341V6.85897H18.3796V12.1807H24.9963V15.6144H18.3713V23.4091H13.8181V3.29163Z" fill="white"/>
<path d="M6.02355 9.87494C6.02355 11.1365 6.02355 12.6737 4.28582 13.3003C6.06532 13.9101 6.02355 15.2051 6.02355 16.5585V21.5711C6.02355 22.5235 6.40785 23.1 7.09291 23.242C7.24344 23.2928 7.40203 23.3155 7.56076 23.3089H9.23165V26.6506H6.47468C3.53392 26.6506 1.91316 24.9797 1.91316 21.8803V15.9486C1.89231 15.6441 1.75804 15.3585 1.53686 15.1481C1.31568 14.9377 1.02367 14.818 0.718481 14.8124H0V11.88H0.718481C1.02976 11.8759 1.3275 11.7521 1.54994 11.5343C1.77239 11.3166 1.90246 11.0215 1.91316 10.7104V4.69519C1.91316 1.64582 3.50051 0 6.47468 0H9.25671V3.29165H7.58582C7.4269 3.29211 7.26904 3.31748 7.11798 3.36684C6.43291 3.54228 6.04861 4.11038 6.04861 5.03772L6.02355 9.87494Z" fill="white"/>
</g>
<defs>
<clipPath id="clip0_901_676">
<rect width="132" height="26.7342" fill="white"/>
</clipPath>
</defs>
</svg>
